<?xml version="1.0"?>
<svg id="Ebene_1" data-name="Ebene 1" xmlns="http://www.w3.org/2000/svg" viewBox="0 0 192 192">
  <defs>
    
  </defs>
  <path class="cls-1" d="M133.48,130.26h.03c8.4,0,14.07-4.19,18.95-13.99l.16-.32h.07c3.09-6.09,6.31-11.32,8.05-14.15,.62-1.01,1.12-1.82,1.25-2.08v-.02s-17.79,0-17.79,0l4.75-17.09c1.85-6.45,1.31-11.88-1.57-15.69-2.51-3.33-6.68-5.17-11.73-5.17-12.88,0-20.41,14.24-25.39,23.67-2.7,5.11-4.33,8.2-6.15,8.2-.51,0-.81-.25-.97-.46-.74-.96-.23-3.07,.91-7.36,2.07-7.82,5.19-19.64-3.18-23.05-1.79-.65-3.79-.99-5.94-.99h-.03c-12.87,0-20.39,14.24-25.37,23.67-2.68,5.08-4.31,8.16-6.11,8.2h-.01s-.02,0-.02,0h-.08c-.06,0-.11-.01-.16-.02-.33-.05-.62-.23-.8-.52-.65-1-.12-3.18,.96-7.28,1.93-7.3,4.84-18.32-1.86-22.38l-.28-.17c-1.75-.97-4.06-1.47-6.87-1.48h-18.28s-.01,.05-.01,.05c0,.1,0,.24,0,.43,.25,10.35-.98,17.42-2.07,21.52l-3.94,14.63h11.87s.9,.01,.9,.01c.51,0,.81,.25,.97,.46,.74,.96,.23,3.07-.91,7.36-1.63,6.19-4.11,15.53-.3,20.47,1.82,2.37,5.01,3.57,9.45,3.57,12.88,0,20.4-14.24,25.39-23.67,2.7-5.11,4.33-8.2,6.15-8.2,.51,0,.81,.25,.97,.46,.74,.96,.23,3.07-.91,7.36-1.63,6.19-4.11,15.53-.3,20.47,1.83,2.37,5.01,3.57,9.46,3.57,12.88,0,20.41-14.24,25.39-23.67,2.7-5.11,4.33-8.2,6.15-8.2,.51,0,.81,.25,.97,.46,.74,.96,.23,3.07-.91,7.36-1.63,6.19-4.11,15.53-.3,20.47,1.83,2.37,5.01,3.57,9.46,3.57Z"></path>
</svg>